<?xml version="1.0" encoding="UTF-8" standalone="no"?>
<!-- Created with Inkscape (http://www.inkscape.org/) -->

<svg
   xmlns:dc="http://purl.org/dc/elements/1.1/"
   xmlns:cc="http://creativecommons.org/ns#"
   xmlns:rdf="http://www.w3.org/1999/02/22-rdf-syntax-ns#"
   xmlns:svg="http://www.w3.org/2000/svg"
   xmlns="http://www.w3.org/2000/svg"
   xmlns:sodipodi="http://sodipodi.sourceforge.net/DTD/sodipodi-0.dtd"
   xmlns:inkscape="http://www.inkscape.org/namespaces/inkscape"
   width="131.47093mm"
   height="137.5995mm"
   viewBox="0 0 131.47093 137.5995"
   version="1.1"
   id="svg1163"
   inkscape:version="0.92.3 (2405546, 2018-03-11)"
   sodipodi:docname="fox-digi.svg">
  <defs
     id="defs1157" />
  <sodipodi:namedview
     id="base"
     pagecolor="#ffffff"
     bordercolor="#666666"
     borderopacity="1.0"
     inkscape:pageopacity="0.0"
     inkscape:pageshadow="2"
     inkscape:zoom="0.49497475"
     inkscape:cx="617.74498"
     inkscape:cy="62.109441"
     inkscape:document-units="mm"
     inkscape:current-layer="layer1"
     showgrid="false"
     inkscape:window-width="1920"
     inkscape:window-height="1001"
     inkscape:window-x="-9"
     inkscape:window-y="1341"
     inkscape:window-maximized="1"
     fit-margin-top="0"
     fit-margin-left="0"
     fit-margin-right="0"
     fit-margin-bottom="0" />
  <metadata
     id="metadata1160">
    <rdf:RDF>
      <cc:Work
         rdf:about="">
        <dc:format>image/svg+xml</dc:format>
        <dc:type
           rdf:resource="http://purl.org/dc/dcmitype/StillImage" />
        <dc:title />
      </cc:Work>
    </rdf:RDF>
  </metadata>
  <g
     inkscape:label="Layer 1"
     inkscape:groupmode="layer"
     id="layer1"
     transform="translate(-39.264533,-79.70025)">
    <path
       id="path11428-3-3"
       style="display:inline;opacity:0.97000002;fill:none;stroke:#000000;stroke-width:1.82615411;stroke-linecap:round;stroke-linejoin:round;stroke-miterlimit:4;stroke-dasharray:none;stroke-opacity:1"
       d="m 132.15113,201.78692 18.96146,-5.28008 5.29167,1.32292 13.41815,-17.95388 -20.38362,-30.10083 m 8.10063,-63.014617 2.6727,6.013556 9.35443,27.662411 -22.8358,33.28594 m -8.16746,-11.77074 5.34539,-25.52424 13.63074,-29.666927 -4.40994,-6.1472 -8.15173,19.377036 m -31.9387,32.339621 31.9387,-32.339621 -11.09168,36.883201 M 105,133.53261 l 8.03905,-1.20272 20.84702,4.54358 4.67722,5.07813 m 18.17432,26.19241 -18.17432,-26.19241 -26.59332,10.0226 m 27.63186,36.56953 -9.7248,17.28528 -13.76438,4.00904 m 5.87992,-18.30796 22.85155,-3.8754 11.89349,-19.51068 -38.03201,10.41347 m -6.46836,26.46972 3.87541,4.81085 -2.93997,6.28083 L 105,216.38616 m 15.25532,-20.98066 -3.34086,8.15172 -4.67722,1.46998 L 105,203.82449 m 10.08161,-15.07092 -5.11616,5.44922 L 105,195.53914 m 0,-40.89224 6.96997,-2.6727 10.0226,39.55589 -1.73725,3.87541 -5.61266,-7.21628 -4.54358,-5.87992 L 105,183.51201 m 17.76437,-24.04702 a 5.2916665,5.2916665 0 0 0 5.29167,5.29167 5.2916665,5.2916665 0 0 0 5.29166,-5.29167 5.2916665,5.2916665 0 0 0 -5.29166,-5.29166 5.2916665,5.2916665 0 0 0 -5.29167,5.29166 z m -44.915502,42.32192 -18.961459,-5.28008 -5.29167,1.32292 -13.41815,-17.95387 20.38362,-30.10083 m -8.100631,-63.014617 -2.6727,6.013556 -9.354429,27.662411 22.8358,33.28594 m 8.16746,-11.77074 -5.34539,-25.52424 -13.630741,-29.666927 4.40994,-6.1472 8.151731,19.377036 M 96.96095,132.32989 65.022249,99.990269 76.113929,136.87347 M 105,133.5326 l -8.03905,-1.20271 -20.847021,4.54358 -4.67722,5.07813 M 53.262388,168.14401 71.436709,141.9516 98.03003,151.9742 m -27.631861,36.56952 9.7248,17.28528 13.764379,4.00905 m -5.87992,-18.30797 -22.851549,-3.8754 -11.893491,-19.51067 38.032012,10.41347 m 6.46836,26.46971 -3.875412,4.81086 2.939971,6.28083 L 105,216.38615 m -15.25532,-20.98066 3.340859,8.15172 4.677221,1.46998 L 105,203.82448 m -10.08161,-15.07092 5.11616,5.44922 4.96545,1.33635 m 0,-40.89223 -6.96997,-2.6727 -10.022602,39.55588 1.737252,3.87541 5.612659,-7.21628 4.543581,-5.87992 L 105,183.512 M 87.235612,159.46499 a 5.2916665,5.2916665 0 0 1 -5.291666,5.29167 5.2916665,5.2916665 0 0 1 -5.291667,-5.29167 5.2916665,5.2916665 0 0 1 5.291667,-5.29166 5.2916665,5.2916665 0 0 1 5.291666,5.29166 z"
       inkscape:connector-curvature="0" />
    <path
       style="opacity:1;fill:#333333;fill-opacity:1;stroke:#000000;stroke-width:5.39932537;stroke-linecap:round;stroke-miterlimit:4;stroke-dasharray:none;stroke-dashoffset:0;stroke-opacity:1"
       d="m 239.76301,431.40975 c -4.79414,-1.42963 -9.40945,-4.31662 -14.03596,-8.77983 -10.36108,-9.99538 -10.37185,-10.06734 -2.94591,-19.67795 3.56997,-4.62024 6.9321,-8.85977 7.47141,-9.4212 0.53931,-0.56142 4.82836,-0.11943 9.53122,0.9822 8.08125,1.89301 13.73348,1.53917 23.74289,-1.48632 1.60424,-0.48491 4.62228,2.20459 9.64286,8.59316 4.01927,5.11443 7.30777,9.81503 7.30777,10.44578 0,0.63075 -3.69642,4.75694 -8.21428,9.16931 -6.42673,6.27668 -9.97197,8.52082 -16.2913,10.31243 -4.44235,1.25946 -8.2995,2.22299 -8.57143,2.14119 -0.27193,-0.0818 -3.7087,-1.10725 -7.63727,-2.27877 z"
       id="path818"
       inkscape:connector-curvature="0"
       transform="matrix(0.26458333,0,0,0.26458333,39.264533,79.70025)" />
    <path
       style="opacity:1;fill:#333333;fill-opacity:1;stroke:#000000;stroke-width:5.39932537;stroke-linecap:round;stroke-miterlimit:4;stroke-dasharray:none;stroke-dashoffset:0;stroke-opacity:1"
       d="M 50.867603,214.23094 C 28.935548,182.19298 10.565566,155.25649 10.045421,154.37206 9.123671,152.80476 41.798196,54.818288 47.250423,42.799306 l 2.739022,-6.037947 23.760525,51.78559 23.760526,51.785591 9.827044,46.96391 9.82705,46.96393 -13.21026,19.11069 -13.210261,19.1107 z"
       id="path820"
       inkscape:connector-curvature="0"
       transform="matrix(0.26458333,0,0,0.26458333,39.264533,79.70025)" />
    <path
       style="opacity:1;fill:#333333;fill-opacity:1;stroke:#000000;stroke-width:5.39932537;stroke-linecap:round;stroke-miterlimit:4;stroke-dasharray:none;stroke-dashoffset:0;stroke-opacity:1"
       d="m 392.84869,253.24942 c -6.80427,-9.79902 -12.3714,-18.89475 -12.3714,-20.21272 0,-1.31796 4.26078,-22.71689 9.46839,-47.55318 l 9.46839,-45.15686 23.7459,-51.867231 23.7459,-51.867229 3.34332,7.551098 c 1.83882,4.153104 11.04525,30.444517 20.45873,58.425362 l 17.11541,50.87426 -40.11849,58.41145 c -22.06517,32.1263 -40.65089,58.59145 -41.30162,58.81147 -0.65072,0.22 -6.75026,-7.61739 -13.55453,-17.41642 z"
       id="path822"
       inkscape:connector-curvature="0"
       transform="matrix(0.26458333,0,0,0.26458333,39.264533,79.70025)" />
    <path
       style="opacity:1;fill:#999999;fill-opacity:1;stroke:#000000;stroke-width:5.39932537;stroke-linecap:round;stroke-miterlimit:4;stroke-dasharray:none;stroke-dashoffset:0;stroke-opacity:1"
       d="M 103.33444,445.39835 C 74.691753,437.3231 73.891886,437.18357 66.905866,439.044 c -3.928571,1.04621 -8.147473,1.90982 -9.375337,1.91915 -1.732013,0.0132 -41.852087,-51.46525 -47.485814,-60.92945 -0.7751296,-1.30215 10.283122,-18.82525 34.116474,-54.06154 19.394837,-28.6742 35.835423,-52.13491 36.534636,-52.13491 0.699213,0 1.975153,1.5448 2.835424,3.43289 1.419831,3.11619 -0.110529,5.831 -16.588677,29.42773 -11.171759,15.99797 -17.907094,26.93444 -17.513883,28.43809 0.696011,2.66155 41.738383,70.82815 44.896253,74.56744 1.073321,1.27095 6.138078,2.99072 11.352238,3.85473 5.17789,0.85801 9.54913,1.75395 9.71387,1.99099 1.17755,1.69428 20.80053,37.2872 20.80053,37.7288 0,1.19272 -4.53856,0.10429 -32.85714,-7.87957 z"
       id="path824"
       inkscape:connector-curvature="0"
       transform="matrix(0.26458333,0,0,0.26458333,39.264533,79.70025)" />
    <path
       style="opacity:1;fill:#999999;fill-opacity:1;stroke:#000000;stroke-width:5.39932537;stroke-linecap:round;stroke-miterlimit:4;stroke-dasharray:none;stroke-dashoffset:0;stroke-opacity:1"
       d="m 365.56261,444.1944 c 17.01687,-30.77932 15.78399,-29.41029 28.04264,-31.13932 3.68466,-0.5197 7.62446,-2.00275 8.75511,-3.29566 4.05809,-4.64045 45.25979,-73.36369 45.25979,-75.49201 0,-1.19658 -8.05345,-13.75634 -17.89656,-27.91057 -17.73969,-25.50939 -19.11688,-28.55939 -14.54812,-32.21909 1.26749,-1.01529 10.90229,12.1763 36.01611,49.31189 18.85714,27.88388 34.83146,51.83624 35.49848,53.22744 0.95136,1.98426 -3.80531,9.21741 -22.06801,33.55736 l -23.28077,31.02788 -5.07485,-0.94815 c -14.6578,-2.73859 -16.11549,-2.5582 -44.74623,5.53728 -15.53355,4.39219 -28.92816,7.9858 -29.76581,7.9858 -0.83765,0 0.87605,-4.33928 3.80822,-9.64285 z"
       id="path826"
       inkscape:connector-curvature="0"
       transform="matrix(0.26458333,0,0,0.26458333,39.264533,79.70025)" />
    <path
       style="opacity:1;fill:#ffcc00;fill-opacity:1;stroke:#000000;stroke-width:5.39932537;stroke-linecap:round;stroke-miterlimit:4;stroke-dasharray:none;stroke-dashoffset:0;stroke-opacity:1"
       d="m 179.2159,479.74587 -21.97567,-6.6229 -15.60121,-27.66122 c -8.58066,-15.21366 -15.40589,-27.83612 -15.16718,-28.0499 0.5639,-0.505 53.96265,8.74384 54.59198,9.45551 1.38629,1.56768 5.62335,11.02106 10.87224,24.25723 7.53536,19.00203 8.49371,20.38959 15.54072,22.50093 3.22171,0.96525 5.85766,2.08496 5.85766,2.48826 0,2.06651 -8.15117,10.5582 -10,10.41776 -1.17857,-0.0895 -12.03191,-3.14308 -24.11854,-6.78567 z"
       id="path828"
       inkscape:connector-curvature="0"
       transform="matrix(0.26458333,0,0,0.26458333,39.264533,79.70025)" />
    <path
       style="opacity:1;fill:#ffcc00;fill-opacity:1;stroke:#000000;stroke-width:5.39932537;stroke-linecap:round;stroke-miterlimit:4;stroke-dasharray:none;stroke-dashoffset:0;stroke-opacity:1"
       d="m 288.33444,482.80552 c -5.42105,-7.20826 -5.41337,-7.25542 1.5042,-9.2364 l 6.54654,-1.87472 9.188,-22.0229 c 5.0534,-12.11259 9.49377,-22.32866 9.86749,-22.70238 0.84338,-0.84339 54.13259,-10.03535 54.82228,-9.45641 0.27496,0.23081 -6.47693,12.8208 -15.00421,27.97776 l -15.50415,27.5581 -22.85293,6.79697 c -12.56912,3.73833 -23.49579,6.78844 -24.28151,6.77802 -0.78571,-0.0104 -2.71428,-1.72854 -4.28571,-3.81804 z"
       id="path830"
       inkscape:connector-curvature="0"
       transform="matrix(0.26458333,0,0,0.26458333,39.264533,79.70025)" />
    <path
       style="opacity:1;fill:#ffcc00;fill-opacity:1;stroke:#000000;stroke-width:5.39932537;stroke-linecap:round;stroke-miterlimit:4;stroke-dasharray:none;stroke-dashoffset:0;stroke-opacity:1"
       d="M 140.15737,411.17444 C 115.58621,406.89411 101.25066,403.76517 99.932986,402.39488 98.806958,401.2239 89.763896,386.87487 79.83729,370.50814 68.189358,351.30333 62.696223,341.03766 64.347393,341.56032 c 1.40716,0.44542 27.308473,7.5823 57.558477,15.85972 30.25,8.27742 58.29212,15.99423 62.31584,17.14848 l 7.31584,2.09862 -5.13413,20.72791 c -2.82377,11.40036 -5.79447,20.66086 -6.60156,20.5789 -0.80708,-0.082 -18.6471,-3.14174 -39.64449,-6.79951 z"
       id="path832"
       inkscape:connector-curvature="0"
       transform="matrix(0.26458333,0,0,0.26458333,39.264533,79.70025)" />
    <path
       style="opacity:1;fill:#ffcc00;fill-opacity:1;stroke:#000000;stroke-width:5.39932537;stroke-linecap:round;stroke-miterlimit:4;stroke-dasharray:none;stroke-dashoffset:0;stroke-opacity:1"
       d="m 315.49089,416.31241 c -0.32558,-0.96848 -2.75632,-10.28774 -5.40166,-20.70947 l -4.80971,-18.94861 5.09889,-1.48989 c 12.50944,-3.65525 123.6962,-33.86461 123.91856,-33.66858 0.13654,0.12037 -7.77609,13.39285 -17.58363,29.49441 -9.80753,16.10155 -18.34202,30.15074 -18.96553,31.22041 -0.73716,1.26466 -13.82329,4.11497 -37.41637,8.14973 -19.95549,3.41268 -38.07504,6.54417 -40.26566,6.95887 -2.47227,0.46803 -4.20745,0.0861 -4.57489,-1.00687 z"
       id="path834"
       inkscape:connector-curvature="0"
       transform="matrix(0.26458333,0,0,0.26458333,39.264533,79.70025)" />
    <path
       style="opacity:1;fill:#ffcc00;fill-opacity:1;stroke:#000000;stroke-width:5.39932537;stroke-linecap:round;stroke-miterlimit:4;stroke-dasharray:none;stroke-dashoffset:0;stroke-opacity:1"
       d="m 187.80281,255.92324 c -31.72097,-12.07732 -57.86921,-22.15349 -58.1072,-22.39148 -0.23799,-0.23799 2.41532,-3.44703 5.89623,-7.13121 l 6.32895,-6.69849 37.49254,-8.14966 37.49254,-8.14966 15,1.88895 c 17.99214,2.26576 15.92516,2.26901 33.58596,-0.0528 l 14.30026,-1.88001 37.8426,8.19856 37.8426,8.19856 5.71429,6.61412 c 3.14286,3.63777 5.42013,6.96676 5.06061,7.39777 -1.17074,1.40353 -116.3211,44.35862 -118.58033,44.23458 -1.20701,-0.0663 -28.14808,-10.00193 -59.86905,-22.07924 z"
       id="path836"
       inkscape:connector-curvature="0"
       transform="matrix(0.26458333,0,0,0.26458333,39.264533,79.70025)" />
    <path
       style="opacity:1;fill:#ffcc00;fill-opacity:1;stroke:#000000;stroke-width:5.39932537;stroke-linecap:round;stroke-miterlimit:4;stroke-dasharray:none;stroke-dashoffset:0;stroke-opacity:1"
       d="M 138.54002,199.28298 C 118.67403,133.62502 107.64998,95.890627 108.01456,94.796894 c 0.24168,-0.725057 23.0362,21.728026 50.65447,49.895736 27.61827,28.16772 49.98778,51.4413 49.71002,51.71906 -0.39958,0.39958 -28.68247,6.70998 -62.43114,13.92947 -3.69577,0.79059 -3.92749,0.44468 -7.40789,-11.05818 z"
       id="path838"
       inkscape:connector-curvature="0"
       transform="matrix(0.26458333,0,0,0.26458333,39.264533,79.70025)" />
    <path
       style="opacity:1;fill:#ffcc00;fill-opacity:1;stroke:#000000;stroke-width:5.39932537;stroke-linecap:round;stroke-miterlimit:4;stroke-dasharray:none;stroke-dashoffset:0;stroke-opacity:1"
       d="m 332.62015,206.56756 c -10.21428,-2.30717 -24.52608,-5.52712 -31.80399,-7.15544 l -13.23256,-2.96059 50.96403,-52.02804 c 28.03023,-28.61543 51.13521,-51.856886 51.3444,-51.647689 0.2092,0.209197 -7.52889,26.730029 -17.19574,58.935189 -11.58355,38.59062 -18.24583,58.63949 -19.54041,58.80313 -1.08036,0.13657 -10.32144,-1.63939 -20.53573,-3.94656 z"
       id="path840"
       inkscape:connector-curvature="0"
       transform="matrix(0.26458333,0,0,0.26458333,39.264533,79.70025)" />
    <path
       style="opacity:1;fill:#ffcc00;fill-opacity:1;stroke:#000000;stroke-width:5.39932537;stroke-linecap:round;stroke-miterlimit:4;stroke-dasharray:none;stroke-dashoffset:0;stroke-opacity:1"
       d="m 125.51239,350.04018 c -35.337838,-9.78967 -64.497527,-18.04631 -64.799308,-18.34809 -0.847157,-0.84716 61.735898,-90.67581 63.186658,-90.69503 0.70377,-0.009 21.99694,7.81006 47.31815,17.37641 l 46.03856,17.39337 -11.66988,45.81407 c -8.38092,32.90214 -12.2552,45.87672 -13.74672,46.03637 -1.14226,0.12228 -30.98962,-7.78742 -66.32746,-17.5771 z m 48.95272,-28.59958 c 2.12813,-1.57633 5.31576,-4.9913 7.08361,-7.58882 6.15524,-9.04391 3.2292,-24.83502 -5.8263,-31.4431 -7.84728,-5.72641 -20.49497,-5.87128 -27.99171,-0.32062 -14.93166,11.05556 -13.03959,33.60182 3.46087,41.24029 5.92843,2.74442 18.38376,1.73415 23.27353,-1.88775 z"
       id="path842"
       inkscape:connector-curvature="0"
       transform="matrix(0.26458333,0,0,0.26458333,39.264533,79.70025)" />
    <path
       style="opacity:1;fill:#ffcc00;fill-opacity:1;stroke:#000000;stroke-width:5.39932537;stroke-linecap:round;stroke-miterlimit:4;stroke-dasharray:none;stroke-dashoffset:0;stroke-opacity:1"
       d="m 302.68958,366.49933 c -0.37377,-1.07129 -5.68515,-21.93661 -11.80308,-46.36739 l -11.12349,-44.4196 46.84083,-17.59671 c 27.30797,-10.25879 47.32988,-17.05376 48.01359,-16.29468 0.64502,0.71611 12.28128,17.37345 25.85837,37.0163 13.57708,19.64286 27.43082,39.60535 30.78609,44.3611 l 6.10049,8.64681 -64.51397,17.65063 c -35.48268,9.70784 -65.63116,17.94329 -66.99661,18.30098 -1.36546,0.35769 -2.78845,-0.22616 -3.16222,-1.29744 z m 46.06124,-45.05873 c 15.46665,-11.45631 13.24733,-34.85728 -3.98781,-42.04826 -5.93098,-2.47457 -15.16302,-1.76202 -21.21098,1.63713 -16.35959,9.1946 -15.21395,34.36471 1.92526,42.29888 5.92844,2.74442 18.38377,1.73415 23.27353,-1.88775 z"
       id="path846"
       inkscape:connector-curvature="0"
       transform="matrix(0.26458333,0,0,0.26458333,39.264533,79.70025)" />
    <path
       style="opacity:1;fill:#ff6600;fill-opacity:1;stroke:#000000;stroke-width:5.39932537;stroke-linecap:round;stroke-miterlimit:4;stroke-dasharray:none;stroke-dashoffset:0;stroke-opacity:1"
       d="M 114.91003,182.86114 105.80658,138.83725 80.288878,83.129408 54.771178,27.421562 60.01079,19.81388 c 3.624805,-5.263057 5.56095,-7.026138 6.28227,-5.720726 0.573462,1.037826 6.892952,15.796402 14.043312,32.796837 10.76265,25.588887 16.460554,42.397815 33.099368,97.643779 11.05429,36.70365 20.35853,67.47277 20.67608,68.37584 0.31755,0.90306 -1.82467,4.41696 -4.76049,7.80867 l -5.33784,6.16674 z"
       id="path848"
       inkscape:connector-curvature="0"
       transform="matrix(0.26458333,0,0,0.26458333,39.264533,79.70025)" />
    <path
       style="opacity:1;fill:#ff6600;fill-opacity:1;stroke:#000000;stroke-width:5.39932537;stroke-linecap:round;stroke-miterlimit:4;stroke-dasharray:none;stroke-dashoffset:0;stroke-opacity:1"
       d="m 367.4833,220.49668 -5.13685,-5.94514 20.96351,-69.28572 c 17.51641,-57.892858 23.13974,-74.453601 34.19831,-100.714281 7.27914,-17.285714 13.41654,-31.616543 13.63867,-31.846286 0.93761,-0.96973 10.89862,14.416698 10.30365,15.915686 -0.35908,0.904687 -11.70935,25.720219 -25.22283,55.145627 l -24.56995,53.500744 -9.17352,43.64211 c -5.04543,24.00316 -9.3289,44.06743 -9.51882,44.58726 -0.18993,0.51983 -2.6569,-1.73017 -5.48217,-5 z"
       id="path852"
       inkscape:connector-curvature="0"
       transform="matrix(0.26458333,0,0,0.26458333,39.264533,79.70025)" />
    <path
       style="opacity:1;fill:#ff6600;fill-opacity:1;stroke:#000000;stroke-width:5.39932537;stroke-linecap:round;stroke-miterlimit:4;stroke-dasharray:none;stroke-dashoffset:0;stroke-opacity:1"
       d="m 190.02704,253.25448 c -29.71193,-11.30571 -54.29159,-20.82573 -54.62146,-21.15561 -0.32987,-0.32987 1.47989,-2.59407 4.02169,-5.03155 4.28247,-4.1067 7.31459,-5.01676 41.33767,-12.40705 35.35546,-7.6797 37.10263,-7.92002 47.14285,-6.48452 13.54177,1.93613 26.5304,1.94643 40.55824,0.0322 11.06625,-1.51012 12.04098,-1.37979 47.72555,6.38159 33.28869,7.24027 36.79371,8.28622 40.66483,12.13492 2.88708,2.87036 3.77093,4.67708 2.77516,5.67285 -2.31025,2.31025 -105.02169,40.27506 -110.58285,40.87429 -3.81283,0.41084 -17.82654,-4.34188 -59.02168,-20.01708 z"
       id="path854"
       inkscape:connector-curvature="0"
       transform="matrix(0.26458333,0,0,0.26458333,39.264533,79.70025)" />
    <path
       style="opacity:1;fill:#ff6600;fill-opacity:1;stroke:#000000;stroke-width:5.39932537;stroke-linecap:round;stroke-miterlimit:4;stroke-dasharray:none;stroke-dashoffset:0;stroke-opacity:1"
       d="m 144.20752,205.52276 c -1.2558,-2.03192 -29.50947,-97.81103 -29.00258,-98.31791 0.26574,-0.26574 19.97436,19.13278 43.79694,43.10781 23.82259,23.97504 43.06087,43.8279 42.75175,44.11748 -0.62078,0.58152 -53.54893,12.26426 -55.56269,12.26426 -0.69262,0 -1.58516,-0.52724 -1.98342,-1.17164 z"
       id="path856"
       inkscape:connector-curvature="0"
       transform="matrix(0.26458333,0,0,0.26458333,39.264533,79.70025)" />
    <path
       style="opacity:1;fill:#ff6600;fill-opacity:1;stroke:#000000;stroke-width:5.39932537;stroke-linecap:round;stroke-miterlimit:4;stroke-dasharray:none;stroke-dashoffset:0;stroke-opacity:1"
       d="m 320.92384,200.61285 -25.98203,-5.86136 3.62555,-4.38569 c 6.29933,-7.62004 85.18917,-86.58264 85.84633,-85.92549 0.34523,0.34524 -0.38481,2.44007 -1.62232,4.65518 -1.2375,2.21511 -5.84633,16.24176 -10.24183,31.17033 -14.44608,49.0637 -20.531,66.44087 -23.22256,66.31848 -1.33161,-0.0606 -14.11303,-2.74771 -28.40314,-5.97145 z"
       id="path858"
       inkscape:connector-curvature="0"
       transform="matrix(0.26458333,0,0,0.26458333,39.264533,79.70025)" />
    <path
       style="opacity:1;fill:#ff6600;fill-opacity:1;stroke:#000000;stroke-width:5.39932537;stroke-linecap:round;stroke-miterlimit:4;stroke-dasharray:none;stroke-dashoffset:0;stroke-opacity:1"
       d="m 323.33444,197.89404 c -10.60715,-2.36193 -19.80539,-4.79277 -20.44055,-5.40187 -0.63516,-0.60909 15.36428,-17.93118 35.55432,-38.49353 20.19003,-20.56234 36.93518,-37.16005 37.21144,-36.8838 0.27625,0.27626 -1.45603,6.88396 -3.84953,14.68378 -20.78271,67.72585 -21.86858,70.6543 -26.1416,70.49995 -1.6766,-0.0606 -11.72694,-2.04259 -22.33408,-4.40453 z"
       id="path860"
       inkscape:connector-curvature="0"
       transform="matrix(0.26458333,0,0,0.26458333,39.264533,79.70025)" />
    <path
       style="opacity:1;fill:#ff6600;fill-opacity:1;stroke:#000000;stroke-width:5.39932537;stroke-linecap:round;stroke-miterlimit:4;stroke-dasharray:none;stroke-dashoffset:0;stroke-opacity:1"
       d="m 189.70602,424.83308 c -0.81199,-3.23524 33.48816,-142.76033 35.61943,-144.8916 0.46657,-0.46657 5.20753,0.86196 10.53545,2.9523 11.94947,4.68821 12.94107,4.69058 25.05959,0.0598 5.38424,-2.05743 10.2745,-3.18243 10.86724,-2.5 0.59275,0.68243 8.97761,32.53865 18.63304,70.79159 16.502,65.37773 18.69724,76.88004 14.67216,76.87697 -0.57431,-4.3e-4 -8.68722,-9.96472 -18.02868,-22.14286 -9.34145,-12.17813 -17.92723,-22.14206 -19.0795,-22.14206 -1.15228,0 -5.9867,1.00843 -10.74317,2.24096 -7.93285,2.05561 -9.45142,2.0441 -18.36027,-0.13913 -5.34167,-1.30904 -10.32194,-2.15676 -11.06728,-1.88381 -0.74533,0.27295 -8.84042,10.13913 -17.98908,21.92484 -9.14867,11.78571 -17.22081,21.63496 -17.93811,21.8872 -0.71729,0.25224 -1.69866,-1.11316 -2.18082,-3.03423 z"
       id="path864"
       inkscape:connector-curvature="0"
       transform="matrix(0.26458333,0,0,0.26458333,39.264533,79.70025)" />
    <path
       style="opacity:1;fill:#fff6d5;fill-opacity:1;stroke:#000000;stroke-width:5.39932537;stroke-linecap:round;stroke-miterlimit:4;stroke-dasharray:none;stroke-dashoffset:0;stroke-opacity:1"
       d="m 212.51485,466.46269 c -5.94079,-2.3102 -6.47848,-3.0229 -11.61827,-15.39984 l -5.3892,-12.97754 7.1099,-9.16532 c 3.91044,-5.04092 7.30191,-9.36428 7.53659,-9.60745 0.23468,-0.24317 4.51345,3.69342 9.50837,8.74797 8.34684,8.4465 9.89664,9.3849 19.15372,11.59758 9.71475,2.32207 10.44144,2.30511 20.48557,-0.47826 9.5106,-2.63553 11.11943,-3.65323 18.55471,-11.73731 l 8.14118,-8.85157 7.65917,9.6254 7.65916,9.6254 -5.43716,13.45365 -5.43716,13.45365 -7.54733,2.37909 c -6.98048,2.2004 -8.60001,2.20816 -21.56305,0.10331 -12.25469,-1.98982 -15.36191,-2.02859 -24.72999,-0.30857 -13.76974,2.5282 -16.53744,2.47532 -24.08621,-0.46019 z"
       id="path866"
       inkscape:connector-curvature="0"
       transform="matrix(0.26458333,0,0,0.26458333,39.264533,79.70025)" />
    <path
       style="opacity:1;fill:#fff6d5;fill-opacity:1;stroke:#000000;stroke-width:5.39932537;stroke-linecap:round;stroke-miterlimit:4;stroke-dasharray:none;stroke-dashoffset:0;stroke-opacity:1"
       d="m 215.73023,502.11542 -4.44225,-9.66771 5.65044,-7.0608 c 3.10774,-3.88345 5.81956,-7.2379 6.02627,-7.45435 0.20671,-0.21645 5.93088,-1.36316 12.72039,-2.54825 10.99315,-1.91882 13.71296,-1.91956 24.84455,-0.007 12.14061,2.08623 12.67371,2.34432 18.54205,8.97682 3.32312,3.75586 6.05527,7.22206 6.07143,7.70267 0.0162,0.48061 -1.90559,5.14132 -4.27056,10.35714 l -4.29994,9.48331 -28.20006,-0.0572 -28.20006,-0.0572 z"
       id="path868"
       inkscape:connector-curvature="0"
       transform="matrix(0.26458333,0,0,0.26458333,39.264533,79.70025)" />
    <circle
       style="opacity:1;fill:#ffffff;fill-opacity:1;stroke:#000000;stroke-width:1;stroke-linecap:round;stroke-miterlimit:4;stroke-dasharray:none;stroke-dashoffset:0;stroke-opacity:1"
       id="path874"
       cx="79.518997"
       cy="156.63458"
       r="2.8348215" />
    <circle
       style="opacity:1;fill:#ffffff;fill-opacity:1;stroke:#000000;stroke-width:1;stroke-linecap:round;stroke-miterlimit:4;stroke-dasharray:none;stroke-dashoffset:0;stroke-opacity:1"
       id="path874-2"
       cx="125.59259"
       cy="156.49594"
       r="2.8348215" />
  </g>
</svg>
